<?xml version="1.0" encoding="utf-8"?>
<!-- Generator: Adobe Illustrator 24.0.1, SVG Export Plug-In . SVG Version: 6.00 Build 0)  -->
<svg version="1.1" id="レイヤー_1" xmlns="http://www.w3.org/2000/svg" xmlns:xlink="http://www.w3.org/1999/xlink" x="0px"
	 y="0px" viewBox="0 0 213.2 16" style="enable-background:new 0 0 213.2 16;" xml:space="preserve">
<style type="text/css">
	.st0{fill:#2D308E;}
</style>
<g>
	<polygon class="st0" points="12.5,15.7 8.5,15.7 3,8.3 3,15.7 0,15.7 0,0.2 3,0.2 3,7.8 8.3,0.2 12,0.2 6,7.8 	"/>
	<path class="st0" d="M19.2,0.2h2.8l5.9,15.4h-3.3l-1.3-3.7h-5.6l-1.3,3.7h-3L19.2,0.2z M22.6,9.6l-2.1-6.1l-2.1,6.1H22.6z"/>
	<polygon class="st0" points="33,15.7 30.2,15.7 30.2,0.2 34.1,0.2 39.9,11.1 39.9,0.2 42.7,0.2 42.7,15.7 39.3,15.7 33,3.6 	"/>
	<path class="st0" d="M54.2,3.4c-0.9-0.4-2.1-0.8-3.1-0.8c-0.9,0-2.2,0.3-2.2,1.7c0,1,1,1.5,2.4,2.1c2.2,1.1,4.2,2.1,4.2,4.9
		c0,3.6-2.4,4.6-5,4.6c-1.7,0-3.9-0.4-4.9-0.9l0.7-2.7c1.1,0.5,2.8,1,4,1c0.9,0,2.1-0.4,2.1-1.8c0-1.1-0.8-1.7-2.8-2.6
		c-2.1-0.9-3.6-1.8-3.6-4.4c0-3.6,2.9-4.5,4.9-4.5c1.7,0,3.3,0.4,4.2,0.8L54.2,3.4z"/>
	<path class="st0" d="M62.5,0.2h2.8l5.9,15.4h-3.3l-1.3-3.7h-5.6l-1.3,3.7h-3L62.5,0.2z M65.8,9.6l-2.1-6.1l-2.1,6.1H65.8z"/>
	<rect x="73.6" y="0.2" class="st0" width="3" height="15.4"/>
	<path class="st0" d="M92.6,16c-3.3,0-6.2-1.6-6.2-5.4V0.2h3v9.3c0,2.3,0.7,3.9,3.3,3.9c2.6,0,3.3-1.6,3.3-3.9V0.2h3v10.4
		C99,14.4,96,16,92.6,16L92.6,16z"/>
	<polygon class="st0" points="105,15.7 102.2,15.7 102.2,0.2 106.2,0.2 112,11.1 112,0.2 114.8,0.2 114.8,15.7 111.4,15.7 105,3.6 	
		"/>
	<rect x="119" y="0.2" class="st0" width="3" height="15.4"/>
	<polygon class="st0" points="136,0.2 139.3,0.2 133.5,15.7 130.8,15.7 124.9,0.2 128.2,0.2 132.2,12 	"/>
	<polygon class="st0" points="143.9,6.6 148.8,6.6 148.8,9 143.9,9 143.9,13.1 149.9,13.1 149.9,15.7 141,15.7 141,0.2 149.6,0.2 
		149.6,2.8 143.9,2.8 	"/>
	<path class="st0" d="M160.8,11.7c-0.7-1.6-1.3-2.1-2.4-2.1h-1.9v6.1h-2.8V0.2h3.8c3.6,0,6.5,0.6,6.5,4.3c0,2.2-1.1,3.3-2.6,3.8
		c0.8,0.4,1.3,1,1.6,1.6c0.6,1.2,1.8,4,2.5,5.6h-3.2C162.1,14.6,161.3,12.8,160.8,11.7 M161.1,4.9c0-1.8-1.4-2.1-3.2-2.1h-1.3v4.5
		h2.6C160.4,7.1,161.1,6.2,161.1,4.9"/>
	<path class="st0" d="M175.9,3.4c-0.9-0.4-2.1-0.8-3.1-0.8c-0.9,0-2.2,0.3-2.2,1.7c0,1,1,1.5,2.4,2.1c2.2,1.1,4.2,2.1,4.2,4.9
		c0,3.6-2.4,4.6-5,4.6c-1.7,0-3.9-0.4-4.9-0.9l0.7-2.7c1.1,0.5,2.8,1,4,1c0.9,0,2.1-0.4,2.1-1.8c0-1.1-0.8-1.7-2.8-2.6
		c-2.1-0.9-3.6-1.8-3.6-4.4c0-3.6,2.9-4.5,4.9-4.5c1.7,0,3.3,0.4,4.2,0.8L175.9,3.4z"/>
	<rect x="180.2" y="0.2" class="st0" width="3" height="15.4"/>
	<polygon class="st0" points="189.8,15.7 189.8,2.8 185.7,2.8 185.7,0.2 196.9,0.2 196.9,2.8 192.8,2.8 192.8,15.7 	"/>
	<polygon class="st0" points="198.8,0.2 202.4,0.2 206.1,6.7 209.7,0.2 213.2,0.2 207.4,9.1 207.4,15.7 204.5,15.7 204.5,9.1 	"/>
</g>
</svg>
